2.2Hz3min_grf.mot
version=1
nRows=17
nColumns 19
inDegrees=yes
endheader
time	1_ground_force_vx	1_ground_force_vy	1_ground_force_vz	1_ground_force_px	1_ground_force_py	1_ground_force_pz	1_ground_torque_x	1_ground_torque_y	1_ground_torque_z	2_ground_force_vx	2_ground_force_vy	2_ground_force_vz	2_ground_force_px	2_ground_force_py	2_ground_force_pz	2_ground_torque_x	2_ground_torque_y	2_ground_torque_z
            2.502500	           31.351885	          311.753678	          -14.653600	           -0.257640	            0.006275	           -0.418445	            0.023009	            0.228794	           -0.010754	            9.195520	          244.541326	           13.210382	           -0.211600	            0.005926	           -0.755507	            0.010557	            0.280747	            0.015166
            2.503000	           31.398891	          308.507922	          -14.438348	           -0.258068	            0.006275	           -0.418421	            0.025036	            0.245987	           -0.011512	            9.346601	          241.596297	           12.965168	           -0.211490	            0.005926	           -0.755341	            0.008406	            0.217282	            0.011660
            2.503500	           31.262588	          304.901599	          -14.224186	           -0.257701	            0.006273	           -0.418108	            0.024537	            0.239311	           -0.011164	            9.497558	          238.652272	           12.438387	           -0.212022	            0.005924	           -0.755396	            0.008688	            0.218305	            0.011378
            2.504000	           31.034815	          300.754234	          -13.966260	           -0.257943	            0.006276	           -0.418630	            0.025067	            0.242920	           -0.011281	            9.933020	          234.787859	           12.095912	           -0.211837	            0.005925	           -0.755395	            0.006846	            0.161822	            0.008337
            2.504500	           30.806532	          297.508817	          -13.842037	           -0.257742	            0.006275	           -0.418575	            0.022344	            0.215780	           -0.010040	            9.849852	          231.841984	           11.850799	           -0.211829	            0.005925	           -0.755526	            0.008652	            0.203656	            0.010410
            2.505000	           30.807987	          293.902128	          -13.536504	           -0.257845	            0.006275	           -0.418546	            0.024776	            0.236363	           -0.010886	           10.050502	          228.160029	           11.743722	           -0.211910	            0.005923	           -0.755090	            0.008410	            0.190914	            0.009827
            2.505500	           30.351351	          291.556257	          -12.995144	           -0.258116	            0.006273	           -0.417994	            0.019828	            0.190469	           -0.008490	           10.436538	          225.031371	           11.591608	           -0.212716	            0.005919	           -0.754661	            0.008921	            0.192350	            0.009908
            2.506000	           30.306201	          287.770638	          -13.011263	           -0.258377	            0.006273	           -0.418169	            0.023145	            0.219770	           -0.009937	           10.590737	          221.167251	           10.873828	           -0.211778	            0.005923	           -0.754889	            0.009955	            0.207883	            0.010221
            2.506500	           30.170239	          284.163725	          -12.659533	           -0.257986	            0.006274	           -0.418268	            0.023647	            0.222722	           -0.009922	           10.790744	          217.669300	           10.814336	           -0.212398	            0.005922	           -0.755179	            0.009384	            0.189289	            0.009404
            2.507000	           30.216709	          280.738717	          -12.674333	           -0.257878	            0.006275	           -0.418522	            0.023455	            0.217919	           -0.009838	           10.984584	          215.830152	           10.338405	           -0.212932	            0.005921	           -0.755544	            0.011256	            0.221155	            0.010593
            2.507500	           29.531216	          277.671285	          -12.043784	           -0.257588	            0.006276	           -0.418632	            0.016368	            0.153902	           -0.006675	           11.094090	          211.412102	            9.994099	           -0.212418	            0.005918	           -0.754111	            0.006773	            0.129069	            0.006101
            2.508000	           29.761334	          274.606253	          -11.919926	           -0.257395	            0.006273	           -0.418009	            0.026114	            0.240949	           -0.010459	           11.199109	          208.281759	           10.029817	           -0.212593	            0.005919	           -0.754513	            0.011843	            0.220258	            0.010607
            2.508500	           29.075175	          270.819134	          -11.613460	           -0.257996	            0.006274	           -0.418268	            0.014640	            0.136367	           -0.005848	           11.486649	          206.442949	            9.553846	           -0.212774	            0.005921	           -0.755270	            0.010404	            0.186983	            0.008653
            2.509000	           29.076384	          267.933704	          -11.350692	           -0.257967	            0.006275	           -0.418550	            0.022944	            0.211426	           -0.008957	           11.594039	          202.578356	            8.929943	           -0.212674	            0.005918	           -0.754335	            0.009528	            0.166479	            0.007339
            2.509500	           28.756434	          265.228901	          -11.178066	           -0.257567	            0.006274	           -0.418155	            0.017983	            0.165860	           -0.006990	           11.515063	          198.525933	            9.150168	           -0.212382	            0.005919	           -0.754213	            0.012605	            0.217311	            0.010016
            2.510000	           28.574110	          261.983297	          -11.008101	           -0.257463	            0.006272	           -0.417707	            0.018856	            0.172881	           -0.007264	           12.037538	          196.503661	            8.720368	           -0.212644	            0.005918	           -0.754363	            0.010277	            0.167758	            0.007445
            2.510500	           28.392649	          258.375785	          -10.518690	           -0.257905	            0.006274	           -0.418299	            0.017818	            0.162150	           -0.006601	           11.861314	          193.373474	            8.427709	           -0.213107	            0.005915	           -0.753853	            0.010830	            0.176559	            0.007695
